<!-- mermaid-sha256: 8c3d754d156cb385afaaeb96a0d393a8573fbdd9cc1638748510d490fda20f05 -->
<svg xmlns="http://www.w3.org/2000/svg" role="img" aria-labelledby="title desc" viewBox="0 0 1700 650">
  <title id="title">Scholion product roadmap</title>
  <desc id="desc">Scholion progresses from local media through reliable transcription, canonical evidence, retrieval, verified navigation, durable research, lifecycle controls, desktop workflows, the completed research evidence loop, a processing center, playback, trust and packaging, portability, and release qualification.</desc>
  <defs>
    <marker id="arrow" markerWidth="9" markerHeight="9" refX="8" refY="4.5" orient="auto"><path d="M0 0L9 4.5L0 9Z" fill="#315E63"/></marker>
    <filter id="shadow" x="-20%" y="-20%" width="140%" height="140%"><feDropShadow dx="0" dy="5" stdDeviation="6" flood-color="#1F2930" flood-opacity="0.10"/></filter>
  </defs>
  <rect width="1700" height="650" rx="30" fill="#FBF9F4"/>
  <text x="70" y="64" fill="#1F2930" font-family="Inter,Segoe UI,sans-serif" font-size="29" font-weight="700">Scholion roadmap</text>
  <text x="70" y="94" fill="#5F6762" font-family="Inter,Segoe UI,sans-serif" font-size="15">From trustworthy local transcription to a complete private evidence workspace.</text>

  <g stroke="#315E63" stroke-width="3" fill="none" marker-end="url(#arrow)">
    <path d="M245 175H300"/><path d="M500 175H555"/><path d="M755 175H810"/><path d="M1010 175H1065"/><path d="M1265 175H1320"/>
    <path d="M1420 220V280H1320"/><path d="M1170 325H1115"/><path d="M915 325H860"/><path d="M660 325H605"/><path d="M405 325H350"/>
    <path d="M200 370V430H180"/><path d="M370 475H425"/><path d="M615 475H670"/><path d="M860 475H915"/><path d="M1105 475H1160"/><path d="M1350 475H1405"/>
  </g>

  <g filter="url(#shadow)" font-family="Inter,Segoe UI,sans-serif" font-size="15" font-weight="700">
    <g><rect x="70" y="130" width="175" height="90" rx="18" fill="#F9D5E5" stroke="#7B2E52" stroke-width="3"/><text x="157" y="168" text-anchor="middle" fill="#22151B">Local media</text><text x="157" y="192" text-anchor="middle" fill="#22151B">source</text></g>
    <g><rect x="300" y="130" width="200" height="90" rx="18" fill="#E8D9FF" stroke="#68469B" stroke-width="3"/><text x="400" y="168" text-anchor="middle" fill="#1F1630">Reliable local</text><text x="400" y="192" text-anchor="middle" fill="#1F1630">transcription</text></g>
    <g><rect x="555" y="130" width="200" height="90" rx="18" fill="#FFF0B8" stroke="#8A6B18" stroke-width="3"/><text x="655" y="168" text-anchor="middle" fill="#2C260F">Canonical</text><text x="655" y="192" text-anchor="middle" fill="#2C260F">evidence</text></g>
    <g><rect x="810" y="130" width="200" height="90" rx="18" fill="#DDF5E3" stroke="#347A46" stroke-width="3"/><text x="910" y="168" text-anchor="middle" fill="#142719">Lexical semantic</text><text x="910" y="192" text-anchor="middle" fill="#142719">hybrid retrieval</text></g>
    <g><rect x="1065" y="130" width="200" height="90" rx="18" fill="#FFF0B8" stroke="#8A6B18" stroke-width="3"/><text x="1165" y="168" text-anchor="middle" fill="#2C260F">Verified evidence</text><text x="1165" y="192" text-anchor="middle" fill="#2C260F">navigation</text></g>
    <g><rect x="1320" y="130" width="200" height="90" rx="18" fill="#F9D5E5" stroke="#7B2E52" stroke-width="3"/><text x="1420" y="168" text-anchor="middle" fill="#22151B">Durable research</text><text x="1420" y="192" text-anchor="middle" fill="#22151B">authority</text></g>

    <g><rect x="1120" y="280" width="200" height="90" rx="18" fill="#DDF5E3" stroke="#347A46" stroke-width="3"/><text x="1220" y="318" text-anchor="middle" fill="#142719">Unified discovery</text><text x="1220" y="342" text-anchor="middle" fill="#142719">+ saved searches</text></g>
    <g><rect x="865" y="280" width="200" height="90" rx="18" fill="#DDF5E3" stroke="#347A46" stroke-width="3"/><text x="965" y="318" text-anchor="middle" fill="#142719">Safe lifecycle</text><text x="965" y="342" text-anchor="middle" fill="#142719">+ retention</text></g>
    <g><rect x="610" y="280" width="200" height="90" rx="18" fill="#DDF5E3" stroke="#347A46" stroke-width="3"/><text x="710" y="318" text-anchor="middle" fill="#142719">Incremental</text><text x="710" y="342" text-anchor="middle" fill="#142719">refresh</text></g>
    <g><rect x="355" y="280" width="200" height="90" rx="18" fill="#DDF5E3" stroke="#347A46" stroke-width="3"/><text x="455" y="318" text-anchor="middle" fill="#142719">Durable library</text><text x="455" y="342" text-anchor="middle" fill="#142719">locations</text></g>
    <g><rect x="100" y="280" width="200" height="90" rx="18" fill="#D8EEFF" stroke="#2E617B" stroke-width="3"/><text x="200" y="318" text-anchor="middle" fill="#12222A">Tauri + React</text><text x="200" y="342" text-anchor="middle" fill="#12222A">desktop</text></g>

    <g><rect x="180" y="430" width="190" height="90" rx="18" fill="#D8EEFF" stroke="#2E617B" stroke-width="3"/><text x="275" y="468" text-anchor="middle" fill="#12222A">Import + Library</text><text x="275" y="492" text-anchor="middle" fill="#12222A">UI</text></g>
    <g><rect x="425" y="430" width="190" height="90" rx="18" fill="#D8EEFF" stroke="#2E617B" stroke-width="3"/><text x="520" y="468" text-anchor="middle" fill="#12222A">Verified evidence</text><text x="520" y="492" text-anchor="middle" fill="#12222A">reader</text></g>
    <g><rect x="670" y="430" width="190" height="90" rx="18" fill="#E8D9FF" stroke="#68469B" stroke-width="3"/><text x="765" y="468" text-anchor="middle" fill="#1F1630">Research evidence</text><text x="765" y="492" text-anchor="middle" fill="#1F1630">loop</text></g>
    <g><rect x="915" y="430" width="190" height="90" rx="18" fill="#E8D9FF" stroke="#68469B" stroke-width="3"/><text x="1010" y="468" text-anchor="middle" fill="#1F1630">Processing</text><text x="1010" y="492" text-anchor="middle" fill="#1F1630">center</text></g>
    <g><rect x="1160" y="430" width="190" height="90" rx="18" fill="#E8D9FF" stroke="#68469B" stroke-width="3"/><text x="1255" y="468" text-anchor="middle" fill="#1F1630">Local media</text><text x="1255" y="492" text-anchor="middle" fill="#1F1630">playback</text></g>
    <g><rect x="1405" y="430" width="190" height="90" rx="18" fill="#E8D9FF" stroke="#68469B" stroke-width="3"/><text x="1500" y="457" text-anchor="middle" fill="#1F1630">Trust + packaging →</text><text x="1500" y="481" text-anchor="middle" fill="#1F1630">backup/restore →</text><text x="1500" y="505" text-anchor="middle" fill="#1F1630">release qualification</text></g>
  </g>

  <g font-family="Inter,Segoe UI,sans-serif" font-size="13">
    <rect x="70" y="570" width="1450" height="42" rx="14" fill="#ECE6DC" stroke="#D9D1C4"/>
    <text x="795" y="596" text-anchor="middle" fill="#5F6762">The research evidence loop is foundation. Trust, packaging, portability, and real-device qualification are the next runway.</text>
  </g>
</svg>